<svg xmlns="http://www.w3.org/2000/svg" xmlns:xlink="http://www.w3.org/1999/xlink" width="2000" zoomAndPan="magnify" viewBox="0 0 1500 1499.999933" height="2000" preserveAspectRatio="xMidYMid meet" version="1.0"><defs><clipPath id="8362f9472f"><path d="M 607.761719 273 L 892.011719 273 L 892.011719 543 L 607.761719 543 Z M 607.761719 273 " clip-rule="nonzero"/></clipPath></defs><rect x="-150" width="1800" fill="#ffffff" y="-149.999993" height="1799.99992" fill-opacity="1"/><rect x="-150" width="1800" fill="#345e7d" y="-149.999993" height="1799.99992" fill-opacity="1"/><path fill="#fcfffe" d="M 836.863281 695.113281 L 626.511719 695.113281 L 667.550781 748.246094 L 832.597656 748.246094 L 873.636719 695.113281 Z M 836.863281 695.113281 " fill-opacity="1" fill-rule="nonzero"/><path fill="#fcfffe" d="M 729.894531 559.902344 L 770.238281 559.902344 L 770.238281 677.75 L 729.894531 677.75 Z M 729.894531 559.902344 " fill-opacity="1" fill-rule="nonzero"/><path fill="#fcfffe" d="M 671.957031 559.902344 L 712.546875 559.902344 L 712.546875 677.75 L 671.957031 677.75 Z M 671.957031 559.902344 " fill-opacity="1" fill-rule="nonzero"/><path fill="#fcfffe" d="M 671.609375 765.589844 L 652.582031 1226.59375 L 847.566406 1226.59375 L 828.539062 765.589844 Z M 671.609375 765.589844 " fill-opacity="1" fill-rule="nonzero"/><path fill="#fcfffe" d="M 787.585938 559.902344 L 828.175781 559.902344 L 828.175781 677.75 L 787.585938 677.75 Z M 787.585938 559.902344 " fill-opacity="1" fill-rule="nonzero"/><g clip-path="url(#8362f9472f)"><path fill="#fcfffe" d="M 664.03125 542.558594 L 836.066406 542.558594 C 852.058594 540.371094 865.917969 532.878906 876.136719 520.804688 C 876.152344 520.789062 876.1875 520.753906 876.207031 520.71875 C 893.082031 501.292969 900.957031 467.191406 878.410156 438.171875 L 750.082031 273.59375 L 621.445312 438.203125 C 606.910156 457.023438 603.613281 481.273438 612.652344 503.007812 C 621.6875 524.761719 640.890625 539.523438 664.03125 542.574219 Z M 664.03125 542.558594 " fill-opacity="1" fill-rule="nonzero"/></g></svg>