<svg xmlns="http://www.w3.org/2000/svg" xmlns:xlink="http://www.w3.org/1999/xlink" width="2000" zoomAndPan="magnify" viewBox="0 0 1500 1499.999933" height="2000" preserveAspectRatio="xMidYMid meet" version="1.0"><defs><clipPath id="5e9b95e124"><path d="M 337.636719 337.636719 L 1162.636719 337.636719 L 1162.636719 1162.636719 L 337.636719 1162.636719 Z M 337.636719 337.636719 " clip-rule="nonzero"/></clipPath></defs><rect x="-150" width="1800" fill="#ffffff" y="-149.999993" height="1799.99992" fill-opacity="1"/><rect x="-150" width="1800" fill="#345e7d" y="-149.999993" height="1799.99992" fill-opacity="1"/><path fill="#bfa256" d="M 554.726562 511.421875 L 641.027344 561.253906 C 641.027344 561.253906 641.027344 461.59375 641.027344 461.59375 L 621.839844 428.367188 L 564.300781 428.367188 C 564.300781 428.367188 535.527344 478.195312 535.527344 478.195312 L 554.714844 511.421875 Z M 571.003906 439.960938 L 615.152344 439.960938 C 615.152344 439.960938 629.433594 464.699219 629.433594 464.699219 L 629.433594 541.171875 L 563.210938 502.9375 L 548.929688 478.195312 Z M 571.003906 439.960938 " fill-opacity="1" fill-rule="nonzero"/><path fill="#bfa256" d="M 554.726562 988.90625 L 535.539062 1022.132812 L 564.3125 1071.960938 L 621.851562 1071.960938 C 621.851562 1071.960938 630.441406 1057.074219 630.441406 1057.074219 L 641.027344 1038.734375 L 641.027344 939.074219 C 641.027344 939.074219 554.714844 988.90625 554.714844 988.90625 Z M 621.5625 1049.285156 L 615.164062 1060.367188 L 571.015625 1060.367188 C 571.015625 1060.367188 548.941406 1022.132812 548.941406 1022.132812 L 563.222656 997.390625 L 629.445312 959.15625 L 629.445312 1035.628906 C 629.445312 1035.628906 621.5625 1049.285156 621.5625 1049.285156 Z M 621.5625 1049.285156 " fill-opacity="1" fill-rule="nonzero"/><path fill="#bfa256" d="M 1038.675781 641.097656 L 1071.902344 621.910156 C 1071.902344 621.910156 1071.902344 564.371094 1071.902344 564.371094 L 1022.074219 535.597656 L 988.847656 554.785156 L 939.019531 641.085938 L 1038.675781 641.085938 Z M 997.332031 563.269531 L 1022.074219 548.988281 L 1060.308594 571.0625 L 1060.308594 615.210938 L 1035.570312 629.492188 L 959.097656 629.492188 C 959.097656 629.492188 997.332031 563.257812 997.332031 563.257812 Z M 997.332031 563.269531 " fill-opacity="1" fill-rule="nonzero"/><g clip-path="url(#5e9b95e124)"><path fill="#bfa256" d="M 1162.578125 750.160156 L 1113.363281 664.910156 L 1068.25 664.910156 L 1107.324219 642.351562 L 1107.324219 543.921875 C 1107.324219 543.921875 1022.074219 494.695312 1022.074219 494.695312 L 983.003906 517.253906 L 1005.566406 478.183594 L 956.339844 392.949219 L 857.910156 392.949219 C 857.910156 392.949219 835.347656 432.007812 835.347656 432.007812 L 835.347656 386.898438 L 750.101562 337.695312 L 664.851562 386.90625 L 664.851562 432.019531 L 642.292969 392.949219 L 543.863281 392.949219 C 543.863281 392.949219 494.636719 478.195312 494.636719 478.195312 L 517.195312 517.265625 L 478.125 494.707031 L 392.878906 543.933594 L 392.878906 642.363281 C 392.878906 642.363281 431.9375 664.921875 431.9375 664.921875 L 386.828125 664.921875 L 337.636719 750.160156 L 386.851562 835.40625 L 431.960938 835.40625 L 392.890625 857.96875 L 392.890625 956.398438 C 392.890625 956.398438 478.136719 1005.625 478.136719 1005.625 L 517.207031 983.0625 L 494.648438 1022.132812 L 543.875 1107.367188 L 642.304688 1107.367188 C 642.304688 1107.367188 664.863281 1068.308594 664.863281 1068.308594 L 664.863281 1113.421875 L 750.113281 1162.636719 L 835.359375 1113.421875 L 835.359375 1068.308594 L 857.921875 1107.378906 L 956.351562 1107.378906 C 956.351562 1107.378906 1005.578125 1022.132812 1005.578125 1022.132812 L 983.015625 983.0625 L 1022.085938 1005.625 L 1107.324219 956.398438 L 1107.324219 857.96875 C 1107.324219 857.96875 1068.261719 835.40625 1068.261719 835.40625 L 1113.375 835.40625 L 1162.589844 750.160156 Z M 1022.074219 508.097656 L 1095.71875 550.621094 L 1095.71875 635.660156 C 1095.71875 635.660156 1045.066406 664.910156 1045.066406 664.910156 L 1045.054688 664.910156 C 1045.054688 664.910156 897.769531 664.910156 897.769531 664.910156 L 971.410156 537.347656 Z M 866.546875 781.367188 L 909.003906 756.859375 L 1024.960938 823.8125 L 891.042969 823.8125 C 891.042969 823.8125 866.535156 781.355469 866.535156 781.355469 Z M 951.320312 951.386719 L 835.347656 884.433594 L 835.347656 835.417969 L 884.367188 835.417969 Z M 814.851562 814.921875 L 782.480469 806.25 L 773.796875 838.640625 L 750.089844 814.933594 L 726.390625 838.628906 L 717.707031 806.25 L 685.339844 814.921875 L 694.011719 782.550781 L 661.628906 773.867188 L 685.339844 750.171875 L 661.628906 726.460938 L 694.011719 717.777344 L 685.339844 685.410156 L 717.707031 694.082031 L 726.390625 661.699219 L 750.101562 685.410156 L 773.796875 661.710938 L 782.480469 694.105469 L 814.851562 685.429688 L 806.179688 717.789062 L 838.570312 726.472656 L 814.863281 750.171875 L 838.570312 773.878906 L 806.179688 782.5625 Z M 718.902344 866.617188 L 743.410156 909.070312 L 676.457031 1025.042969 L 676.457031 891.125 C 676.457031 891.125 718.914062 866.617188 718.914062 866.617188 Z M 676.445312 877.734375 L 676.445312 829.308594 L 709.523438 820.449219 L 718.390625 853.527344 Z M 725.894531 855.53125 L 750.101562 831.324219 L 774.308594 855.53125 L 750.101562 897.476562 Z M 781.300781 866.617188 L 823.753906 891.125 L 823.753906 1025.042969 C 823.753906 1025.042969 756.789062 909.070312 756.789062 909.070312 Z M 609.144531 823.824219 L 475.226562 823.824219 C 475.226562 823.824219 591.199219 756.859375 591.199219 756.859375 L 633.644531 781.367188 L 609.132812 823.824219 Z M 615.835938 835.417969 L 664.851562 835.417969 L 664.851562 884.433594 L 548.882812 951.386719 Z M 633.65625 718.972656 L 591.210938 743.480469 L 475.238281 676.515625 L 609.15625 676.515625 C 609.15625 676.515625 633.667969 718.972656 633.667969 718.972656 Z M 548.882812 548.953125 L 664.851562 615.90625 L 664.851562 664.921875 L 615.835938 664.921875 Z M 602.804688 750.171875 L 644.738281 725.960938 L 668.945312 750.171875 L 644.738281 774.378906 Z M 781.300781 633.722656 L 756.789062 591.28125 L 823.753906 475.308594 L 823.753906 609.226562 C 823.753906 609.226562 781.300781 633.734375 781.300781 633.734375 Z M 823.753906 622.605469 L 823.753906 671.03125 L 790.679688 679.902344 L 781.808594 646.8125 L 823.742188 622.605469 Z M 774.308594 644.808594 L 750.101562 669.015625 L 725.894531 644.808594 L 750.101562 602.875 Z M 718.902344 633.722656 L 676.445312 609.214844 L 676.445312 475.296875 C 676.445312 475.296875 743.410156 591.269531 743.410156 591.269531 L 718.902344 633.710938 Z M 831.253906 750.171875 L 855.464844 725.960938 L 897.410156 750.171875 L 855.464844 774.378906 Z M 866.546875 718.972656 L 891.054688 676.515625 L 1024.972656 676.515625 C 1024.972656 676.515625 909.015625 743.480469 909.015625 743.480469 L 866.558594 718.972656 Z M 884.367188 664.921875 L 835.347656 664.921875 L 835.347656 615.90625 L 951.320312 548.953125 Z M 835.347656 455.21875 C 835.347656 455.21875 864.597656 404.554688 864.597656 404.554688 L 949.636719 404.554688 C 949.636719 404.554688 992.164062 478.207031 992.164062 478.207031 L 962.914062 528.871094 C 962.914062 528.871094 962.914062 528.882812 962.914062 528.882812 L 835.347656 602.527344 Z M 877.664062 676.515625 L 853.457031 718.460938 L 820.371094 709.59375 L 829.238281 676.515625 Z M 676.445312 393.597656 L 750.101562 351.082031 L 823.753906 393.597656 L 823.753906 452.097656 C 823.753906 452.097656 750.101562 579.675781 750.101562 579.675781 L 676.445312 452.109375 C 676.445312 452.109375 676.445312 452.097656 676.445312 452.097656 Z M 676.445312 622.59375 L 718.378906 646.800781 L 709.511719 679.878906 L 676.433594 671.019531 L 676.433594 622.59375 Z M 679.820312 709.582031 L 646.742188 718.449219 L 622.535156 676.515625 L 670.960938 676.515625 L 679.820312 709.59375 Z M 508.039062 478.195312 L 550.5625 404.554688 L 635.601562 404.554688 C 635.601562 404.554688 664.851562 455.207031 664.851562 455.207031 C 664.851562 455.207031 664.851562 455.21875 664.851562 455.21875 L 664.851562 602.515625 C 664.851562 602.515625 537.289062 528.871094 537.289062 528.871094 C 537.289062 528.871094 537.289062 528.859375 537.289062 528.859375 Z M 404.484375 635.671875 L 404.484375 550.632812 C 404.484375 550.632812 478.136719 508.109375 478.136719 508.109375 L 528.800781 537.359375 C 528.800781 537.359375 528.800781 537.371094 528.800781 537.371094 L 602.445312 664.933594 L 455.160156 664.933594 L 404.496094 635.683594 Z M 393.539062 823.824219 L 351.027344 750.171875 L 393.539062 676.515625 L 452.039062 676.515625 L 579.59375 750.171875 L 452.039062 823.824219 L 452.03125 823.824219 C 452.03125 823.824219 393.527344 823.824219 393.527344 823.824219 Z M 478.136719 992.246094 L 404.496094 949.71875 L 404.496094 864.679688 C 404.496094 864.679688 455.148438 835.429688 455.148438 835.429688 L 455.160156 835.429688 C 455.160156 835.429688 602.445312 835.429688 602.445312 835.429688 L 528.800781 962.992188 C 528.800781 962.992188 528.800781 963.003906 528.800781 963.003906 L 478.136719 992.257812 Z M 664.851562 1045.121094 C 664.851562 1045.121094 635.601562 1095.785156 635.601562 1095.785156 L 550.5625 1095.785156 C 550.5625 1095.785156 508.039062 1022.132812 508.039062 1022.132812 L 537.289062 971.46875 L 664.851562 897.824219 Z M 622.535156 823.824219 L 646.742188 781.878906 L 679.820312 790.746094 L 670.960938 823.824219 Z M 823.753906 1106.730469 L 750.101562 1149.246094 L 676.445312 1106.730469 L 676.445312 1048.230469 C 676.445312 1048.230469 750.101562 920.652344 750.101562 920.652344 L 823.753906 1048.207031 C 823.753906 1048.207031 823.753906 1048.21875 823.753906 1048.21875 Z M 823.753906 877.734375 L 781.820312 853.527344 L 790.691406 820.4375 L 823.765625 829.308594 L 823.765625 877.734375 Z M 820.371094 790.746094 L 853.445312 781.878906 L 877.652344 823.824219 L 829.226562 823.824219 L 820.359375 790.746094 Z M 992.164062 1022.132812 L 949.636719 1095.773438 L 864.597656 1095.773438 C 864.597656 1095.773438 835.347656 1045.121094 835.347656 1045.121094 C 835.347656 1045.121094 835.347656 1045.109375 835.347656 1045.109375 L 835.347656 897.816406 C 835.347656 897.816406 962.914062 971.457031 962.914062 971.457031 L 992.164062 1022.121094 Z M 1095.71875 864.65625 L 1095.71875 949.695312 C 1095.71875 949.695312 1022.0625 992.222656 1022.0625 992.222656 L 971.398438 962.96875 L 897.757812 835.40625 L 1045.042969 835.40625 L 1095.707031 864.65625 Z M 1048.160156 823.8125 L 920.609375 750.160156 L 1048.160156 676.503906 L 1048.171875 676.503906 C 1048.171875 676.503906 1106.671875 676.503906 1106.671875 676.503906 L 1149.1875 750.160156 L 1106.671875 823.8125 Z M 1048.160156 823.8125 " fill-opacity="1" fill-rule="nonzero"/></g><path fill="#bfa256" d="M 1092.910156 700.328125 L 1054.546875 700.328125 L 968.246094 750.160156 L 1054.546875 799.988281 L 1092.910156 799.988281 L 1121.675781 750.160156 Z M 1086.222656 788.394531 L 1057.65625 788.394531 L 991.433594 750.160156 L 1057.65625 711.921875 L 1086.222656 711.921875 L 1108.296875 750.160156 Z M 1086.222656 788.394531 " fill-opacity="1" fill-rule="nonzero"/><path fill="#bfa256" d="M 445.664062 700.328125 L 407.300781 700.328125 L 378.539062 750.160156 L 407.300781 799.988281 L 445.664062 799.988281 L 531.96875 750.160156 Z M 442.558594 788.394531 L 413.992188 788.394531 L 391.917969 750.160156 L 413.992188 711.921875 L 442.558594 711.921875 L 508.78125 750.160156 Z M 442.558594 788.394531 " fill-opacity="1" fill-rule="nonzero"/><path fill="#bfa256" d="M 939.019531 859.230469 L 988.847656 945.535156 L 1022.074219 964.722656 L 1071.902344 935.945312 L 1071.902344 878.40625 L 1038.675781 859.21875 L 939.019531 859.21875 Z M 1060.308594 929.257812 L 1022.074219 951.332031 L 997.332031 937.046875 L 959.097656 870.824219 L 1035.570312 870.824219 C 1035.570312 870.824219 1060.308594 885.109375 1060.308594 885.109375 Z M 1060.308594 929.257812 " fill-opacity="1" fill-rule="nonzero"/><path fill="#bfa256" d="M 461.535156 641.097656 L 561.195312 641.097656 C 561.195312 641.097656 511.367188 554.785156 511.367188 554.785156 L 478.136719 535.597656 L 428.308594 564.371094 L 428.308594 621.910156 C 428.308594 621.910156 461.535156 641.097656 461.535156 641.097656 Z M 439.902344 571.074219 L 478.136719 549 L 502.878906 563.28125 L 541.113281 629.503906 L 464.644531 629.503906 C 464.644531 629.503906 439.902344 615.222656 439.902344 615.222656 Z M 439.902344 571.074219 " fill-opacity="1" fill-rule="nonzero"/><path fill="#bfa256" d="M 945.476562 988.90625 L 859.171875 939.078125 C 859.171875 939.078125 859.171875 1038.734375 859.171875 1038.734375 L 878.359375 1071.960938 L 935.898438 1071.960938 C 935.898438 1071.960938 964.675781 1022.132812 964.675781 1022.132812 L 945.488281 988.90625 Z M 929.199219 1060.367188 L 885.050781 1060.367188 C 885.050781 1060.367188 870.765625 1035.628906 870.765625 1035.628906 L 870.765625 959.15625 L 936.988281 997.390625 L 951.273438 1022.132812 Z M 929.199219 1060.367188 " fill-opacity="1" fill-rule="nonzero"/><path fill="#bfa256" d="M 700.269531 1054.605469 L 700.269531 1092.96875 L 750.101562 1121.734375 L 799.929688 1092.96875 L 799.929688 1054.605469 L 750.101562 968.304688 Z M 788.335938 1086.28125 L 750.101562 1108.355469 L 711.863281 1086.28125 L 711.863281 1057.714844 L 750.101562 991.492188 L 788.335938 1057.714844 Z M 788.335938 1086.28125 " fill-opacity="1" fill-rule="nonzero"/><path fill="#bfa256" d="M 799.929688 445.722656 L 799.929688 407.359375 L 750.101562 378.59375 L 700.269531 407.359375 L 700.269531 445.722656 L 750.101562 532.023438 Z M 711.863281 414.046875 L 750.101562 391.972656 L 788.335938 414.046875 L 788.335938 442.617188 L 750.101562 508.839844 L 711.863281 442.617188 Z M 711.863281 414.046875 " fill-opacity="1" fill-rule="nonzero"/><path fill="#bfa256" d="M 945.476562 511.421875 L 964.664062 478.195312 L 935.886719 428.367188 L 878.347656 428.367188 C 878.347656 428.367188 869.757812 443.253906 869.757812 443.253906 L 859.171875 461.59375 L 859.171875 561.253906 C 859.171875 561.253906 945.488281 511.421875 945.488281 511.421875 Z M 878.640625 451.042969 L 885.039062 439.960938 L 929.1875 439.960938 C 929.1875 439.960938 951.261719 478.195312 951.261719 478.195312 L 936.976562 502.9375 L 870.753906 541.171875 L 870.753906 464.699219 C 870.753906 464.699219 878.640625 451.042969 878.640625 451.042969 Z M 878.640625 451.042969 " fill-opacity="1" fill-rule="nonzero"/><path fill="#bfa256" d="M 461.535156 859.230469 L 428.308594 878.417969 L 428.308594 935.957031 C 428.308594 935.957031 478.136719 964.734375 478.136719 964.734375 L 511.367188 945.546875 L 561.195312 859.242188 L 461.535156 859.242188 Z M 502.878906 937.058594 L 478.136719 951.34375 L 439.902344 929.269531 L 439.902344 885.121094 C 439.902344 885.121094 464.644531 870.835938 464.644531 870.835938 L 541.113281 870.835938 C 541.113281 870.835938 502.878906 937.070312 502.878906 937.070312 Z M 502.878906 937.058594 " fill-opacity="1" fill-rule="nonzero"/></svg>