<svg xmlns="http://www.w3.org/2000/svg" xmlns:xlink="http://www.w3.org/1999/xlink" width="2000" zoomAndPan="magnify" viewBox="0 0 1500 1499.999933" height="2000" preserveAspectRatio="xMidYMid meet" version="1.0"><defs><clipPath id="992fdc6df7"><path d="M 159.796875 159.796875 L 1340.296875 159.796875 L 1340.296875 1340.296875 L 159.796875 1340.296875 Z M 159.796875 159.796875 " clip-rule="nonzero"/></clipPath></defs><g clip-path="url(#992fdc6df7)"><path fill="#b5934b" d="M 921.808594 799.921875 L 801.398438 750.046875 L 921.808594 700.167969 L 1042.21875 750.046875 Z M 947.484375 831.792969 L 1093.570312 771.292969 L 1228.441406 827.21875 L 1288.945312 973.308594 L 1142.855469 1033.808594 L 1007.984375 977.882812 Z M 700.167969 921.808594 L 750.046875 801.398438 L 799.921875 921.808594 L 750.046875 1042.21875 Z M 1144.773438 750.046875 L 1258.546875 702.972656 L 1340.296875 505.535156 L 1142.855469 423.785156 L 1029.234375 470.855469 L 1076.304688 357.234375 L 994.554688 159.796875 L 797.117188 241.542969 L 750.046875 355.316406 L 702.972656 241.542969 L 505.535156 159.796875 L 423.785156 357.234375 L 470.855469 470.855469 L 357.234375 423.785156 L 159.796875 505.535156 L 241.542969 702.972656 L 355.316406 750.046875 L 241.542969 797.117188 L 159.796875 994.554688 L 357.234375 1076.304688 L 470.855469 1029.234375 L 423.785156 1143.003906 L 505.535156 1340.296875 L 702.972656 1258.546875 L 750.046875 1144.773438 L 797.117188 1258.546875 L 994.554688 1340.296875 L 1076.304688 1143.003906 L 1029.234375 1029.234375 L 1142.855469 1076.304688 L 1340.296875 994.554688 L 1258.546875 797.117188 Z M 786.34375 713.746094 L 836.222656 593.332031 L 956.632812 543.457031 L 906.757812 663.867188 Z M 786.34375 786.34375 L 906.757812 836.222656 L 956.632812 956.632812 L 836.222656 906.757812 Z M 750.046875 698.839844 L 700.167969 578.28125 L 750.046875 457.871094 L 799.921875 578.28125 Z M 1093.570312 728.796875 L 947.484375 668.296875 L 1007.984375 522.207031 L 1142.855469 466.28125 L 1288.945312 526.78125 L 1228.441406 672.871094 Z M 831.792969 947.484375 L 977.882812 1007.984375 L 1033.808594 1143.003906 L 973.308594 1289.089844 L 827.21875 1228.589844 L 771.292969 1093.570312 Z M 593.332031 836.222656 L 713.746094 786.34375 L 663.867188 906.757812 L 543.457031 956.632812 Z M 578.28125 700.167969 L 698.695312 750.046875 L 578.28125 799.921875 L 457.871094 750.046875 Z M 668.296875 947.484375 L 728.796875 1093.570312 L 672.871094 1228.589844 L 526.78125 1289.089844 L 466.28125 1143.003906 L 522.207031 1007.984375 Z M 663.867188 593.332031 L 713.746094 713.746094 L 593.332031 663.867188 L 543.457031 543.457031 Z M 831.792969 552.753906 L 771.292969 406.519531 L 827.21875 271.648438 L 973.308594 211.148438 L 1033.808594 357.234375 L 977.882812 492.105469 Z M 668.296875 552.753906 L 522.207031 492.105469 L 466.28125 357.234375 L 526.78125 211.148438 L 672.871094 271.648438 L 728.796875 406.519531 Z M 492.105469 522.207031 L 552.605469 668.296875 L 406.519531 728.796875 L 271.648438 672.871094 L 211.148438 526.78125 L 357.234375 466.28125 Z M 552.605469 831.792969 L 492.105469 977.882812 L 357.234375 1033.808594 L 211.148438 973.308594 L 271.648438 827.21875 L 406.519531 771.292969 Z M 552.605469 831.792969 " fill-opacity="1" fill-rule="evenodd"/></g></svg>