<svg xmlns="http://www.w3.org/2000/svg" xmlns:xlink="http://www.w3.org/1999/xlink" width="2000" zoomAndPan="magnify" viewBox="0 0 1500 1499.999933" height="2000" preserveAspectRatio="xMidYMid meet" version="1.0"><defs><clipPath id="bb76561443"><path d="M 303.855469 303.855469 L 1196.355469 303.855469 L 1196.355469 1196.355469 L 303.855469 1196.355469 Z M 303.855469 303.855469 " clip-rule="nonzero"/></clipPath></defs><rect x="-150" width="1800" fill="#ffffff" y="-149.999993" height="1799.99992" fill-opacity="1"/><rect x="-150" width="1800" fill="#345e7d" y="-149.999993" height="1799.99992" fill-opacity="1"/><g clip-path="url(#bb76561443)"><path fill="#b5934b" d="M 879.960938 787.8125 L 788.925781 750.105469 L 879.960938 712.394531 L 970.996094 750.105469 Z M 899.375 811.910156 L 1009.820312 766.167969 L 1111.789062 808.449219 L 1157.53125 918.898438 L 1047.082031 964.636719 L 945.113281 922.355469 Z M 712.394531 879.960938 L 750.105469 788.925781 L 787.8125 879.960938 L 750.105469 970.996094 Z M 1048.535156 750.105469 L 1134.546875 714.515625 L 1196.355469 565.246094 L 1047.082031 503.4375 L 961.179688 539.027344 L 996.769531 453.125 L 934.960938 303.855469 L 785.691406 365.660156 L 750.105469 451.675781 L 714.515625 365.660156 L 565.246094 303.855469 L 503.4375 453.125 L 539.027344 539.027344 L 453.125 503.4375 L 303.855469 565.246094 L 365.660156 714.515625 L 451.675781 750.105469 L 365.660156 785.691406 L 303.855469 934.964844 L 453.125 996.769531 L 539.027344 961.179688 L 503.4375 1047.195312 L 565.246094 1196.355469 L 714.515625 1134.546875 L 750.105469 1048.535156 L 785.691406 1134.546875 L 934.960938 1196.355469 L 996.769531 1047.195312 L 961.179688 961.179688 L 1047.082031 996.769531 L 1196.355469 934.964844 L 1134.546875 785.691406 Z M 777.546875 722.660156 L 815.257812 631.625 L 906.292969 593.917969 L 868.582031 684.953125 Z M 777.546875 777.546875 L 868.582031 815.257812 L 906.292969 906.292969 L 815.257812 868.582031 Z M 750.105469 711.390625 L 712.394531 620.246094 L 750.105469 529.210938 L 787.8125 620.246094 Z M 1009.820312 734.039062 L 899.375 688.296875 L 945.113281 577.851562 L 1047.082031 535.570312 L 1157.53125 581.308594 L 1111.789062 691.757812 Z M 811.910156 899.375 L 922.355469 945.113281 L 964.636719 1047.195312 L 918.898438 1157.640625 L 808.449219 1111.902344 L 766.167969 1009.820312 Z M 631.625 815.257812 L 722.660156 777.546875 L 684.953125 868.582031 L 593.917969 906.292969 Z M 620.246094 712.394531 L 711.28125 750.105469 L 620.246094 787.8125 L 529.210938 750.105469 Z M 688.296875 899.375 L 734.039062 1009.820312 L 691.757812 1111.902344 L 581.308594 1157.640625 L 535.570312 1047.195312 L 577.851562 945.113281 Z M 684.953125 631.625 L 722.660156 722.660156 L 631.625 684.953125 L 593.917969 593.917969 Z M 811.910156 600.945312 L 766.167969 490.386719 L 808.449219 388.417969 L 918.898438 342.679688 L 964.636719 453.125 L 922.355469 555.09375 Z M 688.296875 600.945312 L 577.851562 555.09375 L 535.570312 453.125 L 581.308594 342.679688 L 691.757812 388.417969 L 734.039062 490.386719 Z M 555.09375 577.851562 L 600.832031 688.296875 L 490.386719 734.039062 L 388.417969 691.757812 L 342.675781 581.308594 L 453.125 535.570312 Z M 600.832031 811.910156 L 555.09375 922.355469 L 453.125 964.636719 L 342.675781 918.898438 L 388.417969 808.449219 L 490.386719 766.167969 Z M 600.832031 811.910156 " fill-opacity="1" fill-rule="evenodd"/></g></svg>